<?xml version="1.0" encoding="UTF-8"?>
<svg version="1.1" viewBox="0 0 2048 2048" width="1280" height="1280" xmlns="http://www.w3.org/2000/svg">
<path transform="translate(335,338)" d="m0 0h1079l15 14 53 53 8 7 76 76 6 5 81 81 7 6v2l3 1 50 50 1 3v1062l-1 30-1 1h-1378l-1-44v-1220l1-126zm353 78-1 11v336l1 69 3 22 5 18 8 17 9 12 11 10 16 9 15 5 21 3h20l69-1h326l81 1 21-3 15-5 14-8 11-9 10-13 8-16 5-17 3-20 1-12 1-162v-212l-1-35zm-75 624-17 3-14 6-12 9-9 10-8 14-6 18-2 12-1 12v393l3 19 5 14 7 11 10 9 11 6 11 4 15 3 11 1h816l20-3 15-5 12-7 6-5 9-13 5-13 3-16 1-10v-385l-2-20-5-19-8-16-9-12-11-9-15-7-12-3-9-1z" fill="#010101"/>
<path transform="translate(1172,481)" d="m0 0h24l13 4 11 6 10 9 7 8 8 16 3 16v245l-2 16-4 10-7 12-7 8-13 9-8 4-11 3-8 1h-10l-15-3-14-7-11-9-8-10-7-14-3-13v-256l4-16 6-11 9-10 7-7 12-7z" fill="#010101"/>
<path transform="translate(705,1392)" d="m0 0h638l1 1v46l-2 1h-637l-1-1v-46z" fill="#010101"/>
<path transform="translate(705,1184)" d="m0 0h638l1 1v46l-2 1h-637l-1-1v-46z" fill="#020202"/>
</svg>
